# xmcd
#
# Track frame offsets: 
#        150
#        21013
#        38358
#        58736
#        76457
#        92467
#        116195
#        131988
#        151831
#        169558
#        187777
#        202285
#        222093
#        238715
#        255572
#        274225
#        287387
#        300056
#        316266
#        333389
#
# Disc length: 4739 seconds
#
# Revision: 1
# Processed by: cddbd v1.4PL0 Copyright (c) Steve Scherf et al.
# Submitted via: ExactAudioCopy v0.90b4
#
DISCID=09128114
DTITLE=George Harrison - DeLuxe Collection
DYEAR=2002
DGENRE=Blues
TTITLE0=My Sweet Lord
TTITLE1=Got My Mind Set On You
TTITLE2=Poor Little Girl
TTITLE3=Blow Away
TTITLE4=That's The Way It Goes
TTITLE5=Cockamamie Business
TTITLE6=Wake Up My Love
TTITLE7=Life Itself
TTITLE8=Crackerbox Palace
TTITLE9=Here Comes The Moon
TTITLE10=Cloud
TTITLE11=Gone Tpoppo
TTITLE12=Love Comes To Everyone
TTITLE13=All Those Yards Ago
TTITLE14=Cheer Down
TTITLE15=I'd Have You Anytime
TTITLE16=Run Of The Mill
TTITLE17=I Live For You
TTITLE18=Beware Of Darkness
TTITLE19=My Sweet Lord (new version)
EXTD=
EXTT0=
EXTT1=
EXTT2=
EXTT3=
EXTT4=
EXTT5=
EXTT6=
EXTT7=
EXTT8=
EXTT9=
EXTT10=
EXTT11=
EXTT12=
EXTT13=
EXTT14=
EXTT15=
EXTT16=
EXTT17=
EXTT18=
EXTT19=
PLAYORDER=
